<?xml version="1.0" encoding="UTF-8"?> <svg xmlns="http://www.w3.org/2000/svg" xmlns:xlink="http://www.w3.org/1999/xlink" version="1.1" id="Layer_1" x="0px" y="0px" viewBox="0 0 89.5 89.5" style="enable-background:new 0 0 89.5 89.5;" xml:space="preserve"> <style type="text/css"> .st0{fill:url(#SVGID_1_);} </style> <linearGradient id="SVGID_1_" gradientUnits="userSpaceOnUse" x1="3.3002" y1="44.6117" x2="86.1998" y2="44.6117"> <stop offset="0.2463" style="stop-color:#8E2DE2"></stop> <stop offset="0.9936" style="stop-color:#56C2E1"></stop> </linearGradient> <path class="st0" d="M83.5,55.7c-2.9-2.7-6-5.4-9.9-7.2c-1-0.4-1.9-0.8-2.9-1c4.3-3.5,7-7.7,7.7-12.8c0.6-4.3-0.8-8.3-1.9-12.4 l-1-3.5l-1.9,1.9c-1.4,1.4-3.1,2.3-5.4,3.5c0-3.1-1-6.4-2.5-9.5l-0.6-1.2l-1.4,0.6c-1.9,0.8-3.9,1.7-5.4,2.9 c-2.1,1.4-3.9,3.3-5.4,5.4c-4.8-7.4-6.8-10.5-6.8-10.5L44.8,10l-1.4,2.1c0,0-1.9,3.1-6.8,10.5c-1.5-2.1-3.3-4.1-5.4-5.4 c-1.5-1.2-3.5-2.1-5.4-2.9l-1.4-0.6l-0.6,1.2c-1.5,3.1-2.5,6.4-2.5,9.5c-2.3-1.2-4.1-2.1-5.4-3.5L14,18.9l-1,3.5 c-1.2,4.1-2.5,8.1-1.9,12.4c0.8,5,3.5,9.3,7.7,12.8c-1,0.2-1.9,0.6-2.9,1C12,50.3,8.9,53,6,55.7L3.3,58L7,58.4 c2.9,0.2,5.8,1.7,8.5,3.3c0.4,0.2,0.8,0.4,1.2,0.6c3.1,1.5,6.6,3.3,10.5,3.3c0.4,0,0.8,0,1.2,0c1,0,2.1-0.4,3.3-0.8 c0.2,2.1,1.5,4.5,3.9,7c2.5,2.7,8.3,7,8.5,7l0.8,0.5l0.8-0.5c0.2,0,6-4.3,8.5-7c2.3-2.5,3.7-4.8,3.9-7c1.2,0.4,2.3,0.8,3.3,0.8 c0.4,0,0.8,0,1.2,0c3.9,0,7.4-1.7,10.5-3.3c0.4-0.2,0.8-0.4,1.2-0.6c2.7-1.5,5.6-3.1,8.5-3.3l3.7-0.4L83.5,55.7z M60,19.7 c1-0.8,2.1-1.4,3.3-1.9c1.4,2.7,1.9,5.2,1.7,7.9c-0.4,0-0.8,0.2-1.2,0.4h-0.2c-0.6,0.4-1.2,0.6-1.7,0.8c-1.7,0.6-3.7,1.4-5,2.9 c-0.4-1.4-1.2-2.7-1.9-3.9l-0.4-0.4C56.2,23.2,57.9,21.2,60,19.7z M26.2,17.7c1.2,0.6,2.3,1.2,3.3,1.9c2.1,1.5,3.9,3.5,5.4,5.8 l-0.4,0.4c-0.8,1.2-1.5,2.5-1.9,3.9c-1.4-1.5-3.3-2.3-5-2.9c-0.6-0.2-1.2-0.4-1.7-0.8h-0.2c-0.4-0.2-0.8-0.4-1.2-0.4 C24.2,23,24.8,20.5,26.2,17.7z M72.6,59c-0.4,0.2-0.8,0.4-1.2,0.6c-3.1,1.5-6.4,3.3-9.9,2.9c-2.5-0.2-13.2-5.6-13.4-5.6l-2.5-1.5 l2.1,2.3c0,0.2,2.3,2.5,3.9,3.5c1,0.6,1.7,1.2,2.7,1.7c0.6,0.2,0.8,0.6,0.8,1.2c0,1.4-1,3.3-3.1,5.4c-1.7,1.9-5.6,4.8-7.4,6.2 c0,0,0,0,0,0c0,0,0,0,0,0c-1.7-1.4-5.6-4.3-7.4-6.2c-2.1-2.1-3.1-4.1-3.1-5.4c0-0.6,0.2-1,0.8-1.2c1-0.6,1.7-1.2,2.7-1.7 c1.5-1,3.9-3.3,3.9-3.5l2.1-2.3l-2.5,1.5c-0.2,0-10.8,5.4-13.4,5.6c-3.5,0.4-6.8-1.4-9.9-2.9c-0.4-0.2-0.8-0.4-1.2-0.6 c-2.1-1.2-4.3-2.3-6.6-2.9c1.9-1.5,4.3-3.5,6.8-4.6c2.3-1,4.3-1.4,6-1c5.8,2.9,11.8,3.5,11.8,3.5l1.7,0.2l-1.4-0.8 c-0.2,0-9.9-4.6-11.6-5.8c-5.2-3.5-8.5-8.1-9.3-13.2c-0.4-3.3,0.4-6.6,1.4-9.7c2.7,1.9,5.8,3.1,8.9,4.5c0.6,0.2,1.4,0.6,1.9,0.8 c1.5,0.6,3.1,1.4,4.3,2.5c0.6,0.8,1,1.7,1,2.7c-0.2,2.3,0.2,4.8,0.8,7.4c1.4,5.2,6.8,9.7,7.2,9.9l1.2,1L40.1,52c0,0-3.3-6-4.5-10.3 c-1-3.7-1.5-9.1,1.7-13.9c3.7-5.6,6-9.1,7.4-11.5c1.4,2.3,3.7,5.9,7.4,11.5c3.3,4.8,2.7,10.3,1.7,13.9C52.7,46,49.4,52,49.4,52 l-0.8,1.4l1.2-1c0.4-0.2,5.8-4.6,7.2-9.9c0.6-2.5,1-5,0.8-7.4c0-1,0.4-1.9,1-2.7c1.2-1.2,2.7-1.9,4.3-2.5c0.6-0.2,1.4-0.6,1.9-0.8 c3.1-1.4,6.2-2.5,8.9-4.5c1,3.1,1.7,6.4,1.4,9.7c-0.8,5-4.1,9.7-9.3,13.2c-1.7,1.2-11.4,5.8-11.6,5.8l-1.4,0.8l1.7-0.2 c0,0,6-0.6,11.8-3.5c1.7-0.4,3.7,0,6,1c2.5,1.2,4.8,3.1,6.8,4.6C76.9,56.7,74.8,57.8,72.6,59z"></path> </svg> 